# xmcd CD database file
#
# Track frame offsets:
#	150
#	13855
#	29067
#	46992
#	65412
#	80986
#	99471
#	119598
#	131346
#	148866
#	165540
#	183387
#
# Disc length: 2711 seconds
#
# Revision: 0
# Processed by: cddbd v1.5.1PL0 Copyright (c) Steve Scherf et al.
# Submitted via: CDex 1.50
#
DISCID=ae0a950c
DTITLE=Joshua Carson - someday i will  know
DYEAR=2004
DGENRE=Country
TTITLE0=Tidal River
TTITLE1=Not Just Pretending
TTITLE2=Tell Your Heart
TTITLE3=In My Dreams
TTITLE4=Someday I Will Know
TTITLE5=Straight From The Heart
TTITLE6=I Never Compromized
TTITLE7=If I Only Had A Brain
TTITLE8=In Love Again
TTITLE9=Start A Fire
TTITLE10=I Can Flay
TTITLE11=Here I Go Again (Acoustic Version)
EXTD=YEAR: 2004
EXTT0=
EXTT1=
EXTT2=
EXTT3=
EXTT4=
EXTT5=
EXTT6=
EXTT7=
EXTT8=
EXTT9=
EXTT10=
EXTT11=
PLAYORDER=
